# xmcd
#
# Track frame offsets:
#	150
#	27452
#	60091
#	89299
#	132102
#	166127
#	191462
#
# Disc length: 2919 seconds
#
# Revision: 1
# Processed by: cddbd v1.5.1PL0 Copyright (c) Steve Scherf et al.
# Submitted via: CDex 1.50Beta5
#
DISCID=4c0b6507
DTITLE=さだまさし - のちのおもひに 第一夜 [CD3]
DYEAR=1900
DGENRE=Folk
TTITLE0=トーク5
TTITLE1=1989年 渋滞〜故・大屋順平に捧ぐ〜
TTITLE2=天然色の化石
TTITLE3=フレディもしくは三教街〜ロシア租界にて〜
TTITLE4=Bye Bye Guitar〜ドゥカティにボルサリーノ〜
TTITLE5=トーク6
TTITLE6=デイジー
EXTD=
EXTT0=
EXTT1=
EXTT2=
EXTT3=
EXTT4=
EXTT5=
EXTT6=
PLAYORDER=
